HIERARCHY
ROOT hip
{
  OFFSET -5.44982e-005 106.236 -1.42206
  CHANNELS 6 Xposition Yposition Zposition Zrotation Xrotation Yrotation
  JOINT abdomen
  {
    OFFSET 0 -1.186 -1.50178
    CHANNELS 6 Xposition Yposition Zposition Zrotation Xrotation Yrotation
    JOINT abdomen2
    {
      OFFSET 0 9.964 0.21338
      CHANNELS 6 Xposition Yposition Zposition Zrotation Xrotation Yrotation
      JOINT chest
      {
        OFFSET 0 13.134 -3.25729
        CHANNELS 6 Xposition Yposition Zposition Zrotation Xrotation Yrotation
        JOINT neck
        {
          OFFSET 0 20.686 -1.69049
          CHANNELS 6 Xposition Yposition Zposition Zrotation Xrotation Yrotation
          JOINT head
          {
            OFFSET 0 7.23799 -0.12368
            CHANNELS 6 Xposition Yposition Zposition Zrotation Xrotation Yrotation
            End Site
            {
              OFFSET 0 10.017 2.38717
            }
          }
        }
        JOINT lCollar
        {
          OFFSET 1.70688 20.075 5.0056
          CHANNELS 6 Xposition Yposition Zposition Zrotation Xrotation Yrotation
          JOINT lShldr
          {
            OFFSET 13.6458 -0.047012 -4.84902
            CHANNELS 6 Xposition Yposition Zposition Zrotation Xrotation Yrotation
            JOINT lForeArm
            {
              OFFSET 28.3255 -0.975903 2.28883
              CHANNELS 6 Xposition Yposition Zposition Zrotation Xrotation Yrotation
              JOINT lHand
              {
                OFFSET 22.1583 -0.530035 10.8316
                CHANNELS 6 Xposition Yposition Zposition Zrotation Xrotation Yrotation
                JOINT lThumb1
                {
                  OFFSET 0.785995 0.111999 2.58168
                  CHANNELS 6 Xposition Yposition Zposition Zrotation Xrotation Yrotation
                  JOINT lThumb2
                  {
                    OFFSET 0.3601 -0.878005 4.2331
                    CHANNELS 6 Xposition Yposition Zposition Zrotation Xrotation Yrotation
                    End Site
                    {
                      OFFSET 1.81271 -1.21601 2.2227
                    }
                  }
                }
                JOINT lCarpal1
                {
                  OFFSET 0.9571 1.114 1.76948
                  CHANNELS 6 Xposition Yposition Zposition Zrotation Xrotation Yrotation
                  JOINT lIndex1
                  {
                    OFFSET 4.1246 0.487 4.1451
                    CHANNELS 6 Xposition Yposition Zposition Zrotation Xrotation Yrotation
                    JOINT lIndex2
                    {
                      OFFSET 3.40521 -1.45401 2.7682
                      CHANNELS 6 Xposition Yposition Zposition Zrotation Xrotation Yrotation
                      End Site
                      {
                        OFFSET 1.4531 -1.795 1.2713
                      }
                    }
                  }
                  JOINT lMid1
                  {
                    OFFSET 5.6954 0.209991 2.1184
                    CHANNELS 6 Xposition Yposition Zposition Zrotation Xrotation Yrotation
                    JOINT lMid2
                    {
                      OFFSET 3.9766 -1.53999 2.3863
                      CHANNELS 6 Xposition Yposition Zposition Zrotation Xrotation Yrotation
                      End Site
                      {
                        OFFSET 1.4042 -1.926 1.125
                      }
                    }
                  }
                }
                JOINT lCarpal2
                {
                  OFFSET 2.09559 0.65999 -0.38939
                  CHANNELS 6 Xposition Yposition Zposition Zrotation Xrotation Yrotation
                  JOINT lRing1
                  {
                    OFFSET 5.0395 -0.089997 2.49707
                    CHANNELS 6 Xposition Yposition Zposition Zrotation Xrotation Yrotation
                    JOINT lRing2
                    {
                      OFFSET 3.7921 -1.552 1.4806
                      CHANNELS 6 Xposition Yposition Zposition Zrotation Xrotation Yrotation
                      End Site
                      {
                        OFFSET 1.4655 -1.808 0.9609
                      }
                    }
                  }
                  JOINT lPinky1
                  {
                    OFFSET 4.9141 -1.269 0.35915
                    CHANNELS 6 Xposition Yposition Zposition Zrotation Xrotation Yrotation
                    JOINT lPinky2
                    {
                      OFFSET 3.1477 -1.685 0.84623
                      CHANNELS 6 Xposition Yposition Zposition Zrotation Xrotation Yrotation
                      End Site
                      {
                        OFFSET 0.805505 -1.58499 0.79549
                      }
                    }
                  }
                }
              }
            }
          }
        }
        JOINT rCollar
        {
          OFFSET -1.70688 20.075 5.0056
          CHANNELS 6 Xposition Yposition Zposition Zrotation Xrotation Yrotation
          JOINT rShldr
          {
            OFFSET -13.6458 -0.047012 -4.84902
            CHANNELS 6 Xposition Yposition Zposition Zrotation Xrotation Yrotation
            JOINT rForeArm
            {
              OFFSET -28.3255 -0.975903 2.28883
              CHANNELS 6 Xposition Yposition Zposition Zrotation Xrotation Yrotation
              JOINT rHand
              {
                OFFSET -22.1583 -0.530036 10.8316
                CHANNELS 6 Xposition Yposition Zposition Zrotation Xrotation Yrotation
                JOINT rThumb1
                {
                  OFFSET -0.785995 0.111999 2.58168
                  CHANNELS 6 Xposition Yposition Zposition Zrotation Xrotation Yrotation
                  JOINT rThumb2
                  {
                    OFFSET -0.3601 -0.878005 4.2331
                    CHANNELS 6 Xposition Yposition Zposition Zrotation Xrotation Yrotation
                    End Site
                    {
                      OFFSET -1.81271 -1.21601 2.2227
                    }
                  }
                }
                JOINT rCarpal1
                {
                  OFFSET -0.9571 1.114 1.76948
                  CHANNELS 6 Xposition Yposition Zposition Zrotation Xrotation Yrotation
                  JOINT rIndex1
                  {
                    OFFSET -4.1246 0.487 4.1451
                    CHANNELS 6 Xposition Yposition Zposition Zrotation Xrotation Yrotation
                    JOINT rIndex2
                    {
                      OFFSET -3.40521 -1.45401 2.7682
                      CHANNELS 6 Xposition Yposition Zposition Zrotation Xrotation Yrotation
                      End Site
                      {
                        OFFSET -1.4531 -1.795 1.2713
                      }
                    }
                  }
                  JOINT rMid1
                  {
                    OFFSET -5.6954 0.209991 2.1184
                    CHANNELS 6 Xposition Yposition Zposition Zrotation Xrotation Yrotation
                    JOINT rMid2
                    {
                      OFFSET -3.9766 -1.53999 2.3863
                      CHANNELS 6 Xposition Yposition Zposition Zrotation Xrotation Yrotation
                      End Site
                      {
                        OFFSET -1.4042 -1.926 1.125
                      }
                    }
                  }
                }
                JOINT rCarpal2
                {
                  OFFSET -2.09559 0.65999 -0.38939
                  CHANNELS 6 Xposition Yposition Zposition Zrotation Xrotation Yrotation
                  JOINT rRing1
                  {
                    OFFSET -5.0395 -0.089997 2.49707
                    CHANNELS 6 Xposition Yposition Zposition Zrotation Xrotation Yrotation
                    JOINT rRing2
                    {
                      OFFSET -3.7921 -1.552 1.4806
                      CHANNELS 6 Xposition Yposition Zposition Zrotation Xrotation Yrotation
                      End Site
                      {
                        OFFSET -1.4655 -1.808 0.9609
                      }
                    }
                  }
                  JOINT rPinky1
                  {
                    OFFSET -4.9141 -1.269 0.35915
                    CHANNELS 6 Xposition Yposition Zposition Zrotation Xrotation Yrotation
                    JOINT rPinky2
                    {
                      OFFSET -3.1477 -1.685 0.84623
                      CHANNELS 6 Xposition Yposition Zposition Zrotation Xrotation Yrotation
                      End Site
                      {
                        OFFSET -0.805505 -1.58499 0.79549
                      }
                    }
                  }
                }
              }
            }
          }
        }
      }
    }
  }
  JOINT lThigh
  {
    OFFSET 8.367 -8.2066 0.59823
    CHANNELS 6 Xposition Yposition Zposition Zrotation Xrotation Yrotation
    JOINT lShin
    {
      OFFSET 2.19232 -43.463 -0.493181
      CHANNELS 6 Xposition Yposition Zposition Zrotation Xrotation Yrotation
      JOINT lFoot
      {
        OFFSET 0.733257 -45.8593 -2.64513
        CHANNELS 6 Xposition Yposition Zposition Zrotation Xrotation Yrotation
        End Site
        {
          OFFSET 2.6618 -4.26993 12.3931
        }
      }
    }
  }
  JOINT rThigh
  {
    OFFSET -8.367 -8.2066 0.59823
    CHANNELS 6 Xposition Yposition Zposition Zrotation Xrotation Yrotation
    JOINT rShin
    {
      OFFSET -2.19233 -43.463 -0.493108
      CHANNELS 6 Xposition Yposition Zposition Zrotation Xrotation Yrotation
      JOINT rFoot
      {
        OFFSET -0.733256 -45.8593 -2.64514
        CHANNELS 6 Xposition Yposition Zposition Zrotation Xrotation Yrotation
        End Site
        {
          OFFSET -2.6618 -4.26993 12.3931
        }
      }
    }
  }
}
MOTION
Frames:	4
Frame Time:	0.0333333
1.62121 77.4406 -74.5225 10.307 5.41384 -50.2746 7.10543e-015 -1.186 -1.50178 -4.00634 8.61932 5.44426 0 9.964 0.21338 -1.80051 2.74452 2.34396 7.10543e-015 13.134 -3.25729 -1.57725 3.09187 2.32454 7.10543e-015 20.686 -1.69049 1.83748 -0.170644 13.099 0 7.23799 -0.12368 -4.07056 -5.09827 14.196 1.70688 20.075 5.0056 34.6155 -14.0296 -25.2584 13.6458 -0.047012 -4.84902 20.8593 -43.3984 31.3475 28.3255 -0.975903 2.28883 1.03925 -5.08614 -64.6202 22.1583 -0.530035 10.8316 -24.2116 -35.4465 -11.8439 0.785995 0.111999 2.58168 -5.76476e-015 -1.78906e-015 -3.18055e-015 0.3601 -0.878005 4.2331 -1.78906e-015 2.98177e-015 3.18055e-015 0.9571 1.114 1.76948 -5.76476e-015 -1.78906e-015 -3.18055e-015 4.1246 0.487 4.1451 -1.78906e-015 2.98177e-015 3.18055e-015 3.40521 -1.45401 2.7682 1.19271e-015 -2.18663e-015 -0 5.6954 0.209991 2.1184 -1.78906e-015 2.98177e-015 3.18055e-015 3.9766 -1.53999 2.3863 1.19271e-015 -2.18663e-015 -0 2.09559 0.65999 -0.38939 -5.76476e-015 -1.78906e-015 -3.18055e-015 5.0395 -0.089997 2.49707 -1.78906e-015 2.98177e-015 3.18055e-015 3.7921 -1.552 1.4806 1.19271e-015 -2.18663e-015 -0 4.9141 -1.269 0.35915 -1.78906e-015 2.98177e-015 3.18055e-015 3.1477 -1.685 0.84623 1.19271e-015 -2.18663e-015 -0 -1.70688 20.075 5.0056 12.887 0.44907 -2.10086 -13.6458 -0.047012 -4.84902 9.87307 -44.597 -35.6479 -28.3255 -0.975903 2.28883 -3.95247 -2.3574 33.4994 -22.1583 -0.530036 10.8316 128.963 -67.271 114.399 -0.785995 0.111999 2.58168 -6.36111e-015 -3.18055e-015 3.18055e-015 -0.3601 -0.878005 4.2331 -3.18055e-015 6.36111e-015 3.18055e-015 -0.9571 1.114 1.76948 -6.36111e-015 -3.18055e-015 3.18055e-015 -4.1246 0.487 4.1451 -3.18055e-015 6.36111e-015 3.18055e-015 -3.40521 -1.45401 2.7682 -1.76556e-031 -3.18055e-015 -3.18055e-015 -5.6954 0.209991 2.1184 -3.18055e-015 6.36111e-015 3.18055e-015 -3.9766 -1.53999 2.3863 -1.76556e-031 -3.18055e-015 -3.18055e-015 -2.09559 0.65999 -0.38939 -6.36111e-015 -3.18055e-015 3.18055e-015 -5.0395 -0.089997 2.49707 -3.18055e-015 6.36111e-015 3.18055e-015 -3.7921 -1.552 1.4806 -1.76556e-031 -3.18055e-015 -3.18055e-015 -4.9141 -1.269 0.35915 -3.18055e-015 6.36111e-015 3.18055e-015 -3.1477 -1.685 0.84623 -1.76556e-031 -3.18055e-015 -3.18055e-015 8.367 -8.2066 0.59823 73.4139 -41.353 62.9125 2.19232 -43.463 -0.493181 -4.84273 49.8 5.13517 0.733257 -45.8593 -2.64513 -10.1474 -28.0697 -1.06167 -8.367 -8.2066 0.59823 -37.5129 -32.7721 -2.65861 -2.19233 -43.463 -0.493108 -13.6463 77.5455 9.16561 -0.733256 -45.8593 -2.64514 3.59871 5.32826 -4.0876 
1.72961 77.2112 -58.8856 7.81963 7.74779 -42.4006 0 -1.186 -1.50178 -5.27671 8.25662 6.15479 -7.10543e-015 9.964 0.21338 -2.60129 2.10899 2.68479 0 13.134 -3.25729 -2.34798 2.48509 2.59968 0 20.686 -1.69049 2.70668 -0.115919 11.9689 -1.77636e-015 7.23799 -0.12368 -2.20894 -6.08478 7.95524 1.70688 20.075 5.0056 32.1947 -13.2926 -27.3342 13.6458 -0.047012 -4.84902 25.2794 -40.5926 41.01 28.3255 -0.975903 2.28883 0.890135 -5.29925 -67.405 22.1583 -0.530035 10.8316 -27.1623 -40.0093 -15.0436 0.785995 0.111999 2.58168 4.67144e-015 -2.78299e-015 -1.27222e-014 0.3601 -0.878005 4.2331 -3.72721e-015 -2.28602e-015 -0 0.9571 1.114 1.76948 4.67144e-015 -2.78299e-015 -1.27222e-014 4.1246 0.487 4.1451 -3.72721e-015 -2.28602e-015 -0 3.40521 -1.45401 2.7682 -2.5345e-015 -5.01931e-015 -3.18055e-015 5.6954 0.209991 2.1184 -3.72721e-015 -2.28602e-015 -0 3.9766 -1.53999 2.3863 -2.5345e-015 -5.01931e-015 -3.18055e-015 2.09559 0.65999 -0.38939 4.67144e-015 -2.78299e-015 -1.27222e-014 5.0395 -0.089997 2.49707 -3.72721e-015 -2.28602e-015 -0 3.7921 -1.552 1.4806 -2.5345e-015 -5.01931e-015 -3.18055e-015 4.9141 -1.269 0.35915 -3.72721e-015 -2.28602e-015 -0 3.1477 -1.685 0.84623 -2.5345e-015 -5.01931e-015 -3.18055e-015 -1.70688 20.075 5.0056 13.2229 0.523352 -2.82187 -13.6458 -0.047012 -4.84902 -21.1369 -65.7122 -59.5445 -28.3255 -0.975903 2.28883 -3.97135 -3.21284 43.5144 -22.1583 -0.530036 10.8316 117.396 -75.4697 106.595 -0.785995 0.111999 2.58168 3.18055e-015 -6.36111e-015 -0 -0.3601 -0.878005 4.2331 -3.18055e-015 3.18055e-015 3.18055e-015 -0.9571 1.114 1.76948 3.18055e-015 -6.36111e-015 -0 -4.1246 0.487 4.1451 -3.18055e-015 3.18055e-015 3.18055e-015 -3.40521 -1.45401 2.7682 3.18055e-015 -3.18055e-015 1.27222e-014 -5.6954 0.209991 2.1184 -3.18055e-015 3.18055e-015 3.18055e-015 -3.9766 -1.53999 2.3863 3.18055e-015 -3.18055e-015 1.27222e-014 -2.09559 0.65999 -0.38939 3.18055e-015 -6.36111e-015 -0 -5.0395 -0.089997 2.49707 -3.18055e-015 3.18055e-015 3.18055e-015 -3.7921 -1.552 1.4806 3.18055e-015 -3.18055e-015 1.27222e-014 -4.9141 -1.269 0.35915 -3.18055e-015 3.18055e-015 3.18055e-015 -3.1477 -1.685 0.84623 3.18055e-015 -3.18055e-015 1.27222e-014 8.367 -8.2066 0.59823 79.7161 -48.5059 67.3809 2.19232 -43.463 -0.493181 -6.76969 57.345 7.30398 0.733257 -45.8593 -2.64513 -12.6494 -13.6234 -3.77194 -8.367 -8.2066 0.59823 -36.0271 -20.0388 -4.1282 -2.19233 -43.463 -0.493108 -7.401 68.7691 3.24821 -0.733256 -45.8593 -2.64514 5.90434 7.10505 -6.01442 
1.49084 77.1926 -39.9105 4.51392 10.1171 -30.6441 0 -1.186 -1.50178 -7.00727 8.46698 7.10269 3.55271e-015 9.964 0.21338 -3.65767 2.0329 3.2952 0 13.134 -3.25729 -3.37277 2.41385 3.12239 3.55271e-015 20.686 -1.69049 3.73076 -0.677249 9.70783 0 7.23799 -0.12368 0.486099 -7.68792 0.34448 1.70688 20.075 5.0056 26.3994 -9.54457 -26.7146 13.6458 -0.047012 -4.84902 26.5139 -41.9407 40.9648 28.3255 -0.975903 2.28883 1.31151 -4.62198 -58.8477 22.1583 -0.530035 10.8316 -35.0811 -43.3311 -20.6292 0.785995 0.111999 2.58168 5.56597e-015 3.97569e-015 -3.18055e-015 0.3601 -0.878005 4.2331 3.18055e-015 1.98785e-016 -0 0.9571 1.114 1.76948 5.56597e-015 3.97569e-015 -3.18055e-015 4.1246 0.487 4.1451 3.18055e-015 1.98785e-016 -0 3.40521 -1.45401 2.7682 4.77083e-015 3.37934e-015 -0 5.6954 0.209991 2.1184 3.18055e-015 1.98785e-016 -0 3.9766 -1.53999 2.3863 4.77083e-015 3.37934e-015 -0 2.09559 0.65999 -0.38939 5.56597e-015 3.97569e-015 -3.18055e-015 5.0395 -0.089997 2.49707 3.18055e-015 1.98785e-016 -0 3.7921 -1.552 1.4806 4.77083e-015 3.37934e-015 -0 4.9141 -1.269 0.35915 3.18055e-015 1.98785e-016 -0 3.1477 -1.685 0.84623 4.77083e-015 3.37934e-015 -0 -1.70688 20.075 5.0056 12.8205 1.04766 -2.40455 -13.6458 -0.047012 -4.84902 -90.1769 -73.2761 -110.01 -28.3255 -0.975903 2.28883 -3.98377 -2.87553 39.5715 -22.1583 -0.530036 10.8316 107.467 -73.144 95.7442 -0.785995 0.111999 2.58168 4.77083e-015 -3.18055e-015 -1.59028e-015 -0.3601 -0.878005 4.2331 -3.18055e-015 -3.18055e-015 -1.35174e-014 -0.9571 1.114 1.76948 4.77083e-015 -3.18055e-015 -1.59028e-015 -4.1246 0.487 4.1451 -3.18055e-015 -3.18055e-015 -1.35174e-014 -3.40521 -1.45401 2.7682 -1.59028e-015 -3.18055e-015 -3.18055e-015 -5.6954 0.209991 2.1184 -3.18055e-015 -3.18055e-015 -1.35174e-014 -3.9766 -1.53999 2.3863 -1.59028e-015 -3.18055e-015 -3.18055e-015 -2.09559 0.65999 -0.38939 4.77083e-015 -3.18055e-015 -1.59028e-015 -5.0395 -0.089997 2.49707 -3.18055e-015 -3.18055e-015 -1.35174e-014 -3.7921 -1.552 1.4806 -1.59028e-015 -3.18055e-015 -3.18055e-015 -4.9141 -1.269 0.35915 -3.18055e-015 -3.18055e-015 -1.35174e-014 -3.1477 -1.685 0.84623 -1.59028e-015 -3.18055e-015 -3.18055e-015 8.367 -8.2066 0.59823 85.0179 -59.7257 69.3125 2.19232 -43.463 -0.493181 -10.507 65.79 11.4952 0.733257 -45.8593 -2.64513 -12.1896 6.80353 -5.86501 -8.367 -8.2066 0.59823 -31.4693 0.928289 -6.08675 -2.19233 -43.463 -0.493108 -3.23875 50.0284 -0.133036 -0.733256 -45.8593 -2.64514 9.26735 12.2879 -10.3598 
0.682386 77.102 -26.7865 2.06057 11.028 -18.0512 -1.77636e-015 -1.186 -1.50178 -7.1514 11.4124 8.14373 0 9.964 0.21338 -3.10247 4.50266 4.2435 0 13.134 -3.25729 -2.78889 4.79737 4.08002 8.88178e-016 20.686 -1.69049 3.54866 -3.36943 5.64599 8.88179e-016 7.23799 -0.12368 1.03709 -9.31684 -4.48529 1.70688 20.075 5.0056 12.6112 -0.390028 -14.997 13.6458 -0.047012 -4.84902 4.93383 -38.4788 34.4478 28.3255 -0.975903 2.28883 0.320924 -6.00754 -75.8148 22.1583 -0.530035 10.8316 -25.8038 -56.0448 -9.94728 0.785995 0.111999 2.58168 -1.59028e-015 -1.59028e-015 -6.36111e-015 0.3601 -0.878005 4.2331 -3.18055e-015 1.59028e-015 -0 0.9571 1.114 1.76948 -1.59028e-015 -1.59028e-015 -6.36111e-015 4.1246 0.487 4.1451 -3.18055e-015 1.59028e-015 -0 3.40521 -1.45401 2.7682 -4.77083e-015 3.18055e-015 -0 5.6954 0.209991 2.1184 -3.18055e-015 1.59028e-015 -0 3.9766 -1.53999 2.3863 -4.77083e-015 3.18055e-015 -0 2.09559 0.65999 -0.38939 -1.59028e-015 -1.59028e-015 -6.36111e-015 5.0395 -0.089997 2.49707 -3.18055e-015 1.59028e-015 -0 3.7921 -1.552 1.4806 -4.77083e-015 3.18055e-015 -0 4.9141 -1.269 0.35915 -3.18055e-015 1.59028e-015 -0 3.1477 -1.685 0.84623 -4.77083e-015 3.18055e-015 -0 -1.70688 20.075 5.0056 8.81025 2.7445 3.49799 -13.6458 -0.047012 -4.84902 -98.4711 -76.7743 -110.016 -28.3255 -0.975903 2.28883 -3.97998 -2.8248 38.9521 -22.1583 -0.530036 10.8316 146.53 -65.6836 126.267 -0.785995 0.111999 2.58168 7.95139e-016 4.77083e-015 -6.36111e-015 -0.3601 -0.878005 4.2331 5.56597e-015 0 -3.18055e-015 -0.9571 1.114 1.76948 7.95139e-016 4.77083e-015 -6.36111e-015 -4.1246 0.487 4.1451 5.56597e-015 0 -3.18055e-015 -3.40521 -1.45401 2.7682 -6.36111e-015 0 3.18055e-015 -5.6954 0.209991 2.1184 5.56597e-015 0 -3.18055e-015 -3.9766 -1.53999 2.3863 -6.36111e-015 0 3.18055e-015 -2.09559 0.65999 -0.38939 7.95139e-016 4.77083e-015 -6.36111e-015 -5.0395 -0.089997 2.49707 5.56597e-015 0 -3.18055e-015 -3.7921 -1.552 1.4806 -6.36111e-015 0 3.18055e-015 -4.9141 -1.269 0.35915 5.56597e-015 0 -3.18055e-015 -3.1477 -1.685 0.84623 -6.36111e-015 0 3.18055e-015 8.367 -8.2066 0.59823 87.8715 -70.017 71.4224 2.19232 -43.463 -0.493181 -15.8503 72.1906 16.9928 0.733257 -45.8593 -2.64513 -10.1386 7.68815 -9.41607 -8.367 -8.2066 0.59823 -25.2792 11.892 -12.6851 -2.19233 -43.463 -0.493108 -2.62596 44.7174 -0.496346 -0.733256 -45.8593 -2.64514 6.55089 17.0389 -5.28222 
